# xmcd CD database file
#
# Track frame offsets:
#	150
#	14050
#	36235
#	66884
#	92325
#	122534
#	154582
#	198182
#	261234
#
# Disc length: 3900 seconds
#
# Revision: 0
# Processed by: cddbd v1.5.2PL0 Copyright (c) Steve Scherf et al.
# Submitted via: CDex 1.51
#
DISCID=700f3a09
DTITLE=Dana Paul - Live at Churchill's
DYEAR=1999
DGENRE=Jazz
TTITLE0=Groovy People
TTITLE1=Close Your Eyes
TTITLE2=Good Enough
TTITLE3=You Don't Know What Love Is
TTITLE4=Easy
TTITLE5=I'll Remember April
TTITLE6=Land of Make Believe
TTITLE7=Gershwin Medley
TTITLE8=The One Step (Instrumental)
EXTD=YEAR: 1999
EXTT0=
EXTT1=
EXTT2=
EXTT3=
EXTT4=
EXTT5=
EXTT6=
EXTT7=
EXTT8=
PLAYORDER=
